<svg xmlns="http://www.w3.org/2000/svg" xmlns:xlink="http://www.w3.org/1999/xlink" width="14px" height="16px" viewBox="0 0 14 15" version="1.1">
<g>
<path d="M 3.136719 13.125 L 0.230469 13.125 L 0.230469 4.363281 L 3.136719 4.363281 Z M 1.679688 3.167969 C 0.75 3.167969 0 2.445312 0 1.574219 C 0 0.707031 0.75 0 1.679688 0 C 2.609375 0 3.363281 0.707031 3.363281 1.574219 C 3.363281 2.445312 2.609375 3.167969 1.679688 3.167969 Z M 13.996094 13.125 L 11.101562 13.125 L 11.101562 8.859375 C 11.101562 7.839844 11.078125 6.539062 9.59375 6.539062 C 8.082031 6.539062 7.847656 7.644531 7.847656 8.785156 L 7.847656 13.125 L 4.949219 13.125 L 4.949219 4.363281 L 7.738281 4.363281 L 7.738281 5.554688 L 7.777344 5.554688 C 8.164062 4.871094 9.109375 4.144531 10.523438 4.144531 C 13.460938 4.144531 14 5.957031 14 8.308594 L 14 13.125 Z M 13.996094 13.125 "/>
</g>
</svg>
